# xmcd
#
# Track frame offsets:
#	150
#	21758
#	39387
#	60839
#	77473
#	92355
#	110539
#	126612
#	141224
#	158757
#	175107
#	191271
#	209922
#	228665
#	248760
#	266441
#	283267
#	302844
#	314787
#	325750
#	339948
#
# Disc length: 4702 seconds
#
# Revision: 0
# Processed by: cddbd v1.5.2PL0 Copyright (c) Steve Scherf et al.
# Submitted via: EasyCDDAExtractor 12.0.1.1
#
DISCID=27125c15
DTITLE=Various Artist - The Ultimate Latin Album 6 CD1
DYEAR=2005
DGENRE=Dance
TTITLE0=Gerardo - SB 50 - Sigo Siendo Rico
TTITLE1=Celia Cruz - SB 50 - La Negra Tiene Tumbao
TTITLE2=Jon Secada - SB 50 - Me Gayo Del Cielo
TTITLE3=Donato and Estefano - SB 50 - Sin Ti
TTITLE4=Martinho Da Vila - SB 50 - Canta Canta Minhagente
TTITLE5=Paulina Rubio - SB 51 - Vive El Verano
TTITLE6=John Paul Young - SB 51 - Standing In The Rain
TTITLE7=Ruben Gomez - SB 51 - Baila Baila Conmigo
TTITLE8=Natalia Oreiro - SB 50 - Luna Brava
TTITLE9=Azul Azul - SB 50 - La Bomba
TTITLE10=Paulina Rubio - SB 50 - My Friend Mi Amigo
TTITLE11=Rey Ruiz - CC 31 - El Diablo Anda Suelto
TTITLE12=Celia Cruz - CC 31 - Rie Y Llora
TTITLE13=Oscar De Leon - CC 30 - Volver A Verte
TTITLE14=El Zoom - CC 31 - Que Hora
TTITLE15=Kaoma - CC 31 - Cha Cha La Vie
TTITLE16=Blestyaschie - CC 32 - Za Chetire Morya
TTITLE17=Della Reese - CC 31 - Lets Do It
TTITLE18=Dean Martin - CC 31 - Cha Cha D'Amour
TTITLE19=Della Reese - CC 31 - Come On A My House
TTITLE20=Sindicato Argentino - CC 30 - Donte Yo Estare
EXTD=
EXTT0=
EXTT1=
EXTT2=
EXTT3=
EXTT4=
EXTT5=
EXTT6=
EXTT7=
EXTT8=
EXTT9=
EXTT10=
EXTT11=
EXTT12=
EXTT13=
EXTT14=
EXTT15=
EXTT16=
EXTT17=
EXTT18=
EXTT19=
EXTT20=
PLAYORDER=
